<?xml version="1.0" encoding="iso-8859-1"?>
<!-- Generator: Adobe Illustrator 19.0.0, SVG Export Plug-In . SVG Version: 6.00 Build 0)  -->
<svg version="1.1" id="Layer_1" xmlns="http://www.w3.org/2000/svg" xmlns:xlink="http://www.w3.org/1999/xlink" x="0px" y="0px"
	 viewBox="0 0 512 512" style="enable-background:new 0 0 512 512;" xml:space="preserve">
<path style="fill:#FF7058;" d="M493.714,512H18.286C8.187,512,0,503.813,0,493.714V18.286C0,8.187,8.187,0,18.286,0h475.429
	C503.813,0,512,8.187,512,18.286v475.429C512,503.813,503.813,512,493.714,512z"/>
<g>
	<path style="fill:#F1543F;" d="M493.714,0H256v512h237.714c10.099,0,18.286-8.187,18.286-18.286V18.286
		C512,8.187,503.813,0,493.714,0z"/>
	<path style="fill:#F1543F;" d="M212.802,220.642H109.767c-10.099,0-18.286-8.187-18.286-18.286V99.319
		c0-10.099,8.187-18.286,18.286-18.286h103.035c10.099,0,18.286,8.187,18.286,18.286v103.035
		C231.088,212.454,222.902,220.642,212.802,220.642z"/>
</g>
<path style="fill:#E03E34;" d="M410.203,220.642H291.227c-14.065,0-22.861-15.261-15.835-27.429L334.88,90.178
	c7.035-12.186,24.649-12.164,31.671,0l59.488,103.035C433.073,205.394,424.253,220.642,410.203,220.642z"/>
<path style="fill:#F1543F;" d="M161.285,430.966c-42.041,0-76.243-34.203-76.243-76.243s34.203-76.243,76.243-76.243
	s76.243,34.203,76.243,76.243S203.326,430.966,161.285,430.966z"/>
<g>
	<path style="fill:#E03E34;" d="M374.394,430.966h-47.358c-10.099,0-18.286-8.187-18.286-18.286v-15.993h-15.993
		c-10.099,0-18.286-8.187-18.286-18.286v-47.358c0-10.099,8.187-18.286,18.286-18.286h15.993v-15.994
		c0-10.099,8.187-18.286,18.286-18.286h47.358c10.099,0,18.286,8.187,18.286,18.286v15.993h15.993
		c10.099,0,18.286,8.187,18.286,18.286v47.358c0,10.099-8.187,18.286-18.286,18.286H392.68v15.993
		C392.68,422.779,384.492,430.966,374.394,430.966z"/>
	<path style="fill:#E03E34;" d="M212.802,81.034h-51.518V220.64h51.518c10.099,0,18.286-8.187,18.286-18.286V99.319
		C231.088,89.221,222.902,81.034,212.802,81.034z"/>
	<path style="fill:#E03E34;" d="M161.285,278.479v152.486c42.041,0,76.243-34.203,76.243-76.243S203.326,278.479,161.285,278.479z"
		/>
</g>
<g>
	<path style="fill:#C9352D;" d="M426.039,193.213L366.551,90.178c-3.512-6.083-9.673-9.129-15.835-9.131v139.594h59.488
		C424.253,220.642,433.073,205.394,426.039,193.213z"/>
	<path style="fill:#C9352D;" d="M408.672,312.759H392.68v-15.994c0-10.099-8.187-18.286-18.286-18.286h-23.678v152.486h23.678
		c10.099,0,18.286-8.187,18.286-18.286v-15.993h15.993c10.099,0,18.286-8.187,18.286-18.286v-47.356
		C426.958,320.945,418.771,312.759,408.672,312.759z"/>
</g>
<g>
</g>
<g>
</g>
<g>
</g>
<g>
</g>
<g>
</g>
<g>
</g>
<g>
</g>
<g>
</g>
<g>
</g>
<g>
</g>
<g>
</g>
<g>
</g>
<g>
</g>
<g>
</g>
<g>
</g>
</svg>
